 <svg  version="1.0" xmlns="http://www.w3.org/2000/svg"  width="300.000000pt" height="292.000000pt" viewBox="0 0 300.000000 292.000000"  preserveAspectRatio="xMidYMid meet">  <g transform="translate(0.000000,292.000000) scale(0.100000,-0.100000)" fill="#d3d3d3" stroke="none"> <path d="M733 2666 l-28 -24 0 -131 c0 -129 0 -131 28 -158 23 -24 35 -28 79 -27 43 0 55 5 75 28 22 25 23 35 23 157 0 125 -1 131 -25 154 -34 35 -112 35 -152 1z"/> <path d="M1954 2665 c-25 -25 -25 -28 -22 -160 3 -123 5 -136 25 -157 17 -16 35 -22 73 -22 46 -1 55 3 81 32 29 32 29 34 29 153 0 120 0 121 -29 150 -25 24 -37 29 -81 29 -41 0 -56 -5 -76 -25z"/> <path d="M478 2496 c-26 -7 -55 -19 -65 -26 -52 -39 -78 -70 -99 -115 l-24 -50 0 -931 0 -930 26 -52 c29 -58 69 -96 134 -126 44 -21 58 -21 788 -24 408 -1 742 0 742 3 0 3 -10 24 -22 45 l-23 40 -710 0 c-671 0 -712 1 -751 19 -47 21 -77 59 -93 116 -7 27 -11 257 -11 733 l0 692 1050 0 1050 0 0 -454 0 -454 31 -11 c18 -6 36 -11 40 -11 5 0 9 303 9 673 l0 672 -24 51 c-46 99 -152 158 -273 152 l-58 -3 -6 -67 c-8 -94 -46 -147 -121 -168 -104 -29 -198 61 -198 190 l0 50 -450 0 -450 0 0 -50 c0 -174 -166 -259 -273 -141 -35 39 -44 66 -49 146 l-3 40 -60 2 c-33 1 -81 -4 -107 -11z"/> <path d="M647 1734 c-4 -4 -7 -69 -7 -145 0 -126 2 -139 19 -149 31 -16 266 -13 280 4 8 9 11 59 9 152 l-3 139 -146 3 c-80 1 -148 -1 -152 -4z"/> <path d="M1077 1733 c-4 -3 -7 -70 -7 -149 0 -120 2 -143 16 -148 9 -3 71 -6 139 -6 99 0 127 3 139 16 13 12 16 40 16 139 0 68 -3 130 -6 139 -5 14 -28 16 -148 16 -79 0 -146 -3 -149 -7z"/> <path d="M1496 1724 c-3 -8 -6 -74 -6 -144 0 -118 2 -130 19 -140 29 -15 253 -13 274 3 15 11 17 29 15 152 l-3 140 -146 3 c-127 2 -147 0 -153 -14z"/> <path d="M1877 1734 c-4 -4 -7 -69 -7 -145 0 -126 2 -139 19 -149 29 -15 253 -13 274 3 15 11 17 29 15 152 l-3 140 -146 3 c-80 1 -148 -1 -152 -4z"/> <path d="M662 1288 c-18 -18 -17 -272 2 -287 9 -8 59 -11 152 -9 l139 3 0 150 0 150 -140 3 c-101 2 -144 -1 -153 -10z"/> <path d="M1084 1287 c-2 -7 -3 -76 -2 -152 l3 -140 139 -3 c93 -2 143 1 152 9 19 15 20 269 2 287 -18 18 -287 17 -294 -1z"/> <path d="M1512 1288 c-18 -18 -17 -272 2 -287 9 -8 59 -11 152 -9 l139 3 0 150 0 150 -140 3 c-101 2 -144 -1 -153 -10z"/> <path d="M1892 1288 c-18 -18 -17 -272 2 -287 9 -8 59 -11 152 -9 l139 3 0 150 0 150 -140 3 c-101 2 -144 -1 -153 -10z"/> <path d="M2215 933 c-118 -42 -195 -110 -250 -220 -28 -54 -30 -66 -30 -173 0 -114 0 -115 39 -187 46 -88 105 -144 194 -186 62 -30 75 -32 173 -32 101 0 108 1 181 38 308 152 309 582 1 734 -68 33 -85 38 -167 40 -68 3 -103 -1 -141 -14z m252 -75 c66 -24 146 -96 181 -162 24 -46 27 -61 27 -156 0 -98 -2 -109 -30 -158 -113 -206 -382 -246 -546 -83 -131 132 -137 332 -13 470 97 108 240 141 381 89z"/> <path d="M2310 810 c-12 -7 -16 -37 -18 -139 -5 -173 -11 -167 165 -163 124 3 134 5 144 24 10 18 8 25 -11 40 -18 15 -40 18 -121 18 l-99 0 0 103 c0 119 -14 146 -60 117z"/> <path d="M1132 852 l-43 -3 3 -147 3 -147 144 -3 c109 -2 146 1 153 10 14 22 10 278 -4 283 -18 6 -203 11 -256 7z"/> <path d="M664 837 c-2 -7 -3 -74 -2 -148 l3 -134 150 0 150 0 0 145 0 145 -148 3 c-115 2 -149 0 -153 -11z"/> <path d="M1516 834 c-9 -23 -7 -257 2 -272 7 -9 44 -12 153 -10 l144 3 3 148 3 147 -150 0 c-126 0 -150 -2 -155 -16z"/> </g> </svg> 