 <svg  version="1.0" xmlns="http://www.w3.org/2000/svg"  width="90.000000pt" height="90.000000pt" viewBox="0 0 90.000000 90.000000"  preserveAspectRatio="xMidYMid meet">  <g transform="translate(0.000000,90.000000) scale(0.100000,-0.100000)" fill="#d3d3d3" stroke="none"> <path d="M365 783 c-72 -38 -105 -94 -105 -178 0 -83 34 -141 102 -176 87 -45 193 -8 239 83 37 72 18 190 -37 239 -56 49 -141 63 -199 32z"/> <path d="M320 303 c-174 -61 -246 -127 -192 -176 16 -15 53 -17 314 -17 273 0 296 1 311 18 49 54 -25 119 -198 176 -62 20 -175 20 -235 -1z"/> </g> </svg> 