 <svg  version="1.0" xmlns="http://www.w3.org/2000/svg"  width="50.000000pt" height="50.000000pt" viewBox="0 0 50.000000 50.000000"  preserveAspectRatio="xMidYMid meet">  <g transform="translate(0.000000,50.000000) scale(0.050000,-0.050000)" fill="#d3d3d3" stroke="none"> <path d="M320 850 c0 -38 9 -70 20 -70 11 0 20 32 20 70 0 39 -9 70 -20 70 -11 0 -20 -31 -20 -70z"/> <path d="M93 825 c-15 -24 82 -117 101 -98 8 8 -9 37 -38 66 -28 28 -56 43 -63 32z"/> <path d="M519 789 c-62 -66 -31 -90 34 -25 28 28 43 56 32 63 -11 6 -40 -10 -66 -38z"/> <path d="M229 691 c-59 -59 -64 -148 -11 -213 47 -58 89 -31 136 86 17 43 49 87 72 99 40 22 40 23 4 50 -59 42 -146 33 -201 -22z"/> <path d="M463 629 c-33 -27 -66 -75 -72 -106 -7 -31 -39 -76 -72 -101 -74 -54 -79 -136 -13 -199 74 -69 546 -65 627 5 119 102 42 312 -113 312 -40 0 -61 12 -70 40 -31 99 -195 127 -287 49z"/> <path d="M0 580 c0 -11 32 -20 70 -20 39 0 70 9 70 20 0 11 -31 20 -70 20 -38 0 -70 -9 -70 -20z"/> <path d="M123 394 c-24 -26 -37 -53 -30 -61 15 -14 107 63 107 90 0 30 -32 18 -77 -29z"/> </g> </svg> 