 <svg  version="1.0" xmlns="http://www.w3.org/2000/svg"  width="64.000000pt" height="64.000000pt" viewBox="0 0 64.000000 64.000000"  preserveAspectRatio="xMidYMid meet">  <g transform="translate(0.000000,64.000000) scale(0.100000,-0.100000)" fill="#09f60d" stroke="none"> <path d="M182 467 c-61 -62 -112 -119 -112 -128 0 -19 20 -39 39 -39 9 0 57 42 108 92 l93 93 93 -93 c51 -50 99 -92 108 -92 19 0 39 20 39 40 0 20 -220 240 -240 240 -9 0 -66 -51 -128 -113z m166 66 c2 -8 -5 -13 -17 -13 -12 0 -21 6 -22 13 0 6 -4 2 -9 -10 -12 -30 -107 -103 -126 -96 -12 5 -12 7 3 19 10 7 24 14 31 14 6 0 12 6 12 13 0 15 47 61 70 70 23 9 53 3 58 -10z m159 -190 c-10 -9 -168 148 -160 160 3 5 42 -27 86 -71 45 -45 78 -85 74 -89z m-355 25 c-17 -18 -35 -28 -39 -24 -4 4 7 21 25 38 44 38 56 27 14 -14z"/> <path d="M182 267 c-61 -62 -112 -119 -112 -128 0 -19 20 -39 39 -39 9 0 57 42 108 92 l93 93 93 -93 c51 -50 99 -92 108 -92 19 0 39 20 39 40 0 20 -220 240 -240 240 -9 0 -66 -51 -128 -113z m187 30 c25 -23 61 -54 79 -69 17 -15 32 -34 32 -44 0 -13 -5 -10 -21 10 -11 14 -26 26 -33 26 -6 0 -31 18 -55 40 -23 22 -50 40 -59 40 -18 0 -42 -20 -134 -108 -32 -31 -61 -53 -65 -49 -9 10 177 197 196 197 8 0 35 -19 60 -43z"/> <path d="M187 50 c-82 -14 -78 -31 9 -38 37 -3 55 -1 51 5 -4 6 10 13 33 16 52 7 121 -3 113 -16 -7 -11 102 -5 114 6 11 12 -2 17 -63 27 -69 11 -188 11 -257 0z"/> </g> </svg> 