<?xml version="1.0" standalone="no"?>
<!DOCTYPE svg PUBLIC "-//W3C//DTD SVG 20010904//EN"
 "http://www.w3.org/TR/2001/REC-SVG-20010904/DTD/svg10.dtd">
<svg version="1.0" xmlns="http://www.w3.org/2000/svg"
 width="240.000000pt" height="240.000000pt" viewBox="0 0 240.000000 240.000000"
 preserveAspectRatio="xMidYMid meet">
<metadata>
Created by potrace 1.10, written by Peter Selinger 2001-2011
</metadata>
<g transform="translate(0.000000,240.000000) scale(0.100000,-0.100000)"
fill="#d3d3d3" stroke="none">
<path d="M2046 2320 c-20 -22 -36 -45 -36 -51 0 -20 22 -51 58 -83 56 -49 82
-79 82 -96 0 -18 -422 -443 -444 -448 -26 -6 -65 31 -66 60 0 22 33 59 170
195 182 180 194 199 150 243 -46 46 -54 40 -377 -282 -167 -167 -303 -310
-303 -320 0 -10 34 -50 75 -89 62 -60 75 -77 75 -103 -1 -21 -8 -37 -26 -49
-39 -29 -59 -17 -143 82 -40 46 -49 52 -79 49 -19 -2 -38 -10 -42 -18 -4 -8
-14 -30 -23 -48 -9 -19 -17 -40 -17 -47 0 -7 -6 -26 -14 -42 -8 -15 -21 -44
-30 -63 -8 -19 -25 -57 -37 -83 -40 -88 -23 -133 44 -123 22 4 49 13 60 21 12
8 29 15 38 15 9 0 22 7 29 15 7 8 23 15 35 15 12 0 28 7 35 15 7 8 22 15 34
15 12 0 31 7 42 15 10 8 26 15 36 15 9 0 235 219 502 486 401 401 486 490 486
512 0 21 -23 50 -103 130 -92 92 -106 102 -139 102 -29 0 -42 -7 -72 -40z
m-452 -711 c37 -29 34 -67 -9 -112 -50 -51 -74 -56 -102 -21 -33 42 -30 79 11
120 39 39 63 42 100 13z"/>
<path d="M300 2270 c-51 -7 -79 -22 -124 -66 -72 -71 -66 10 -66 -1014 0
-1024 -5 -943 66 -1014 69 -69 37 -66 616 -68 288 -1 529 2 536 6 19 12 15 83
-5 91 -10 4 -233 6 -496 5 -491 -1 -527 1 -571 39 -10 9 -23 27 -28 41 -12 33
-12 1768 0 1801 11 27 38 53 67 63 11 4 283 7 605 6 643 -1 630 -2 630 58 0
58 31 55 -601 56 -321 1 -604 -1 -629 -4z"/>
<path d="M2184 1706 c-18 -14 -19 -31 -19 -473 l0 -458 -195 -1 c-215 0 -227
-3 -294 -70 -66 -65 -66 -68 -68 -339 -2 -355 -21 -357 366 31 l296 295 1 501
c2 476 1 502 -16 515 -24 17 -46 17 -71 -1z m-100 -1035 c6 -9 -11 -27 -140
-152 -38 -36 -104 -103 -147 -148 -42 -44 -82 -81 -87 -81 -13 0 -3 217 12
277 5 23 20 50 32 61 26 24 90 45 113 38 10 -3 50 -2 88 3 100 12 123 12 129
2z"/>
</g>
</svg>
