 <svg  version="1.0" xmlns="http://www.w3.org/2000/svg"  width="150.000000pt" height="150.000000pt" viewBox="0 0 150.000000 150.000000"  preserveAspectRatio="xMidYMid meet">  <g transform="translate(0.000000,150.000000) scale(0.100000,-0.100000)" fill="#d3d3d3" stroke="none"> <path d="M79 1281 l-29 -29 0 -512 0 -512 29 -29 29 -29 632 0 632 0 29 29 29 29 0 512 0 512 -29 29 -29 29 -632 0 -632 0 -29 -29z m776 -541 l0 -505 -370 0 -370 0 -3 495 c-1 272 0 501 3 508 3 10 83 12 372 10 l368 -3 0 -505z"/> <path d="M312 837 c-45 -45 -82 -89 -82 -97 0 -25 165 -183 186 -178 35 6 28 38 -20 85 -25 24 -46 49 -46 54 0 5 79 9 189 9 159 0 190 2 195 15 3 8 3 22 0 30 -5 13 -36 15 -195 15 -104 0 -189 4 -189 9 0 4 20 29 45 54 25 26 45 50 45 55 0 12 -22 32 -35 32 -6 0 -47 -37 -93 -83z"/> </g> </svg> 