 <svg  version="1.0" xmlns="http://www.w3.org/2000/svg"  width="150.000000pt" height="150.000000pt" viewBox="0 0 150.000000 150.000000"  preserveAspectRatio="xMidYMid meet">  <g transform="translate(0.000000,150.000000) scale(0.100000,-0.100000)" fill="#d3d3d3" stroke="none"> <path d="M569 1410 c-36 -10 -75 -23 -85 -28 -10 -5 -37 -18 -59 -28 -85 -40 -215 -156 -215 -192 0 -26 32 -62 56 -62 14 0 48 22 88 58 112 99 246 152 386 152 151 0 284 -56 396 -165 68 -67 82 -86 119 -165 54 -113 67 -254 37 -371 -19 -70 -27 -93 -54 -139 -4 -8 -12 -25 -17 -37 -13 -28 -146 -161 -174 -174 -12 -5 -29 -13 -37 -17 -46 -27 -69 -35 -139 -54 -117 -30 -258 -17 -371 37 -68 32 -87 45 -146 99 -67 63 -102 71 -128 31 -9 -13 -16 -32 -16 -40 0 -20 108 -131 142 -145 12 -6 37 -19 53 -30 17 -11 37 -22 45 -26 8 -3 26 -10 40 -16 114 -48 277 -60 400 -29 265 65 456 256 521 521 52 212 -13 453 -168 620 -78 85 -225 175 -313 193 -14 3 -43 10 -65 16 -62 16 -221 11 -296 -9z"/> <path d="M172 887 c-85 -86 -122 -131 -122 -147 0 -29 238 -270 267 -270 32 0 63 29 63 58 0 20 -15 42 -55 82 -30 29 -52 57 -49 62 3 4 125 8 272 8 246 1 269 2 290 19 27 23 29 62 4 84 -16 15 -52 17 -295 17 -167 0 -277 4 -277 9 0 6 25 33 55 62 60 56 70 92 37 122 -39 36 -62 23 -190 -106z"/> </g> </svg> 