 <svg  version="1.0" xmlns="http://www.w3.org/2000/svg"  width="50.000000pt" height="50.000000pt" viewBox="0 0 50.000000 50.000000"  preserveAspectRatio="xMidYMid meet">  <g transform="translate(0.000000,50.000000) scale(0.100000,-0.100000)" fill="#a39e9e" stroke="none"> <path d="M210 460 c0 -6 47 -10 120 -10 l120 0 0 -200 0 -200 -70 0 c-40 0 -70 -4 -70 -10 0 -6 33 -10 80 -10 l80 0 0 220 0 220 -130 0 c-80 0 -130 -4 -130 -10z"/> <path d="M225 417 c-13 -10 -16 -21 -11 -40 7 -31 48 -46 71 -27 21 18 19 57 -4 70 -26 13 -33 13 -56 -3z"/> <path d="M370 382 c0 -4 5 -13 12 -20 9 -9 4 -12 -25 -12 -20 0 -37 -4 -37 -10 0 -5 16 -10 36 -10 32 0 35 -2 24 -15 -23 -28 0 -30 27 -2 l27 26 -24 26 c-23 25 -40 32 -40 17z"/> <path d="M90 305 c-12 -20 -19 -42 -16 -50 9 -23 35 -18 48 10 6 14 19 25 29 25 17 0 17 -3 3 -35 -7 -19 -14 -43 -14 -53 0 -23 110 -172 127 -172 29 0 23 31 -16 89 -23 33 -41 63 -41 66 0 3 7 22 15 42 l15 36 24 -22 c31 -29 91 -27 91 4 0 15 -8 21 -30 23 -16 2 -32 7 -35 11 -3 3 -20 19 -38 34 -27 22 -44 27 -87 27 -50 0 -55 -2 -75 -35z"/> <path d="M110 161 c0 -6 -17 -11 -37 -13 -30 -2 -38 -7 -38 -23 0 -17 8 -20 49 -23 59 -4 75 8 56 43 -13 25 -30 34 -30 16z"/> </g> </svg> 