 <svg  version="1.0" xmlns="http://www.w3.org/2000/svg"  width="192.000000pt" height="192.000000pt" viewBox="0 0 192.000000 192.000000"  preserveAspectRatio="xMidYMid meet">  <g transform="translate(0.000000,192.000000) scale(0.100000,-0.100000)" fill="#d3d3d3" stroke="none"> <path d="M538 1433 c-121 -120 -224 -226 -230 -237 -8 -15 -3 -25 23 -52 18 -19 37 -34 43 -34 5 0 93 83 196 185 102 102 193 185 202 185 9 0 28 -15 43 -32 28 -34 81 -91 238 -260 50 -54 98 -98 106 -98 9 0 84 68 167 151 l151 151 52 -46 c28 -25 55 -46 60 -46 12 0 21 37 21 89 0 25 8 87 17 138 12 67 13 97 5 105 -7 7 -35 6 -99 -6 -48 -9 -110 -16 -138 -16 -57 0 -95 -8 -95 -21 0 -5 21 -32 46 -60 l46 -52 -108 -108 c-60 -60 -116 -109 -125 -109 -9 0 -24 10 -32 23 -8 12 -41 49 -72 82 -147 155 -250 268 -253 276 -12 32 -59 -5 -264 -208z"/> <path d="M655 1088 c-3 -7 -6 -175 -7 -373 l-3 -360 -55 0 -55 0 -5 265 -5 265 -115 0 -115 0 -5 -265 -5 -264 -25 -6 c-23 -5 -25 -11 -25 -60 l0 -55 715 0 715 0 0 55 c0 49 -2 55 -25 60 l-25 6 -5 324 -5 325 -115 0 -115 0 -5 -325 -5 -325 -55 0 -55 0 -5 235 -5 235 -115 0 -115 0 -5 -235 -5 -235 -55 0 -55 0 -5 370 -5 370 -113 3 c-84 2 -114 -1 -117 -10z"/> </g> </svg> 