 <svg  version="1.0" xmlns="http://www.w3.org/2000/svg"  width="192.000000pt" height="192.000000pt" viewBox="0 0 192.000000 192.000000"  preserveAspectRatio="xMidYMid meet">  <g transform="translate(0.000000,192.000000) scale(0.100000,-0.100000)" fill="#9e9e9e" stroke="none"> <path d="M1270 1705 c-93 -21 -160 -61 -224 -134 -85 -95 -118 -249 -80 -366 24 -72 25 -74 68 -138 28 -41 123 -111 181 -133 104 -39 272 -21 360 40 41 29 115 104 126 130 5 11 13 28 18 36 41 69 53 208 25 282 -42 110 -74 157 -149 213 -56 42 -100 61 -169 74 -71 13 -84 13 -156 -4z m111 -182 c8 -9 29 -22 47 -30 33 -14 36 -20 26 -47 -5 -13 -22 -16 -76 -16 -66 0 -69 -1 -66 -22 2 -12 12 -27 23 -33 94 -49 135 -92 135 -140 0 -52 -11 -74 -49 -97 -20 -12 -42 -31 -50 -41 -13 -18 -14 -18 -40 6 -14 13 -38 27 -52 31 -30 7 -40 31 -27 65 8 22 9 23 34 7 16 -11 40 -16 67 -14 39 3 42 5 45 33 3 26 -3 35 -38 58 -23 15 -45 27 -48 27 -4 1 -20 11 -36 24 -24 20 -29 32 -30 69 -1 46 23 87 50 87 8 0 21 11 30 25 19 29 36 32 55 8z"/> <path d="M420 844 c-99 -27 -164 -47 -208 -63 l-42 -16 2 -250 c3 -276 -2 -259 68 -234 19 6 51 17 70 24 19 7 51 18 70 25 57 21 121 24 155 7 16 -8 50 -22 75 -32 25 -9 59 -23 75 -30 17 -7 50 -20 75 -30 25 -10 59 -23 75 -30 17 -7 50 -21 75 -30 25 -9 60 -23 78 -31 41 -18 76 -18 127 0 22 8 69 21 105 31 120 30 163 48 228 92 36 25 70 49 76 54 6 5 45 34 86 65 90 66 119 100 120 137 0 41 -49 87 -93 87 -32 0 -133 -46 -168 -76 -8 -8 -19 -14 -22 -14 -4 0 -37 -21 -74 -46 -73 -50 -126 -63 -254 -64 -71 0 -75 2 -187 86 -29 21 -52 42 -52 46 0 13 56 9 95 -8 21 -8 67 -16 103 -16 59 0 66 2 88 28 49 60 15 128 -83 167 -78 31 -176 65 -218 77 -16 5 -43 13 -60 19 -119 41 -283 52 -385 25z"/> </g> </svg> 