 <svg  version="1.0" xmlns="http://www.w3.org/2000/svg"  width="50.000000pt" height="50.000000pt" viewBox="0 0 50.000000 50.000000"  preserveAspectRatio="xMidYMid meet">  <g transform="translate(0.000000,50.000000) scale(0.100000,-0.100000)" fill="#d3d3d3" stroke="none"> <path d="M172 470 c-34 -16 -81 -34 -103 -40 l-42 -11 7 -63 c14 -137 74 -254 166 -321 l50 -37 28 21 c108 76 192 240 192 372 0 24 -5 30 -40 39 -22 6 -68 24 -102 40 -35 17 -70 30 -78 30 -8 0 -43 -13 -78 -30z m118 -100 c11 -11 20 -29 20 -39 0 -10 7 -22 15 -25 13 -4 15 -19 13 -68 l-3 -63 -85 0 -85 0 -3 63 c-2 49 0 64 13 68 8 3 15 15 15 25 0 25 35 59 60 59 11 0 29 -9 40 -20z"/> <path d="M222 358 c-7 -7 -12 -20 -12 -30 0 -14 8 -18 40 -18 32 0 40 4 40 18 0 22 -19 42 -40 42 -9 0 -21 -5 -28 -12z"/> <path d="M240 240 c0 -11 5 -20 10 -20 6 0 10 9 10 20 0 11 -4 20 -10 20 -5 0 -10 -9 -10 -20z"/> </g> </svg> 