 <svg  version="1.0" xmlns="http://www.w3.org/2000/svg"  width="72.000000pt" height="72.000000pt" viewBox="0 0 72.000000 72.000000"  preserveAspectRatio="xMidYMid meet">  <g transform="translate(0.000000,72.000000) scale(0.100000,-0.100000)" fill="#d3d3d3" stroke="none"> <path d="M240 627 c-108 -42 -190 -162 -190 -277 0 -61 33 -148 75 -198 18 -21 59 -51 91 -67 50 -25 71 -30 134 -30 63 0 84 5 130 28 72 37 101 66 135 135 122 245 -121 509 -375 409z m177 -89 c32 -30 32 -102 1 -135 -30 -32 -102 -32 -135 -1 -32 30 -32 102 -1 135 30 32 102 32 135 1z m47 -271 c80 -30 90 -47 48 -90 -37 -38 -109 -67 -168 -67 -46 0 -129 38 -164 75 -33 35 -19 54 56 82 76 28 152 28 228 0z"/> </g> </svg> 