<?xml version="1.0" encoding="UTF-8"?>
<svg version="1.1" xmlns="http://www.w3.org/2000/svg" width="144" height="138" viewBox="0 0 144 138">
<path d="M0 0 C2.85691319 1.08737091 5.34998159 2.52962853 7.98828125 4.078125 C9.22864908 4.8003688 10.46957787 5.5216497 11.7109375 6.2421875 C12.40719238 6.64727539 13.10344727 7.05236328 13.82080078 7.46972656 C19.46145379 10.72336469 25.15005559 13.89395424 30.82739258 17.08300781 C36.27081844 20.15118028 41.65925044 23.28922608 46.99316406 26.54443359 C49.00457641 27.72743204 51.08862722 28.78454798 53.17578125 29.828125 C53.17578125 38.408125 53.17578125 46.988125 53.17578125 55.828125 C46.47702153 53.59520509 46.47702153 53.59520509 42.94921875 51.078125 C38.05400358 47.70126665 32.97703604 44.75040252 27.80078125 41.828125 C26.41922852 41.04320679 26.41922852 41.04320679 25.00976562 40.24243164 C19.48098702 37.10831748 13.93592683 34.00980289 8.33203125 31.01171875 C6.17578125 29.828125 6.17578125 29.828125 3.70703125 28.11328125 C1.28311632 26.62380163 1.28311632 26.62380163 -1.28125 26.92578125 C-4.34811516 28.01402373 -6.78064015 29.49131642 -9.51171875 31.265625 C-14.74130409 34.59782411 -20.06931229 37.66973768 -25.51171875 40.640625 C-32.89830837 44.68376905 -40.10268154 48.9744035 -47.25073242 53.42504883 C-52.73028274 56.828125 -52.73028274 56.828125 -53.82421875 56.828125 C-53.82421875 47.918125 -53.82421875 39.008125 -53.82421875 29.828125 C-51.74109375 28.631875 -49.65796875 27.435625 -47.51171875 26.203125 C-46.88096436 25.84009277 -46.25020996 25.47706055 -45.6003418 25.10302734 C-41.9673767 23.02225537 -38.30721786 21.00021357 -34.625 19.0078125 C-28.45341291 15.65192238 -22.38584315 12.12786038 -16.32421875 8.578125 C-14.71933594 7.64226563 -14.71933594 7.64226563 -13.08203125 6.6875 C-1.41086527 -0.13292949 -1.41086527 -0.13292949 0 0 Z " fill="#E2D390" transform="translate(72.82421875,13.171875)"/>
<path d="M0 0 C2.50097656 1.23999023 2.50097656 1.23999023 5.140625 2.80859375 C6.6110022 3.67484375 6.6110022 3.67484375 8.11108398 4.55859375 C9.66484741 5.48865234 9.66484741 5.48865234 11.25 6.4375 C12.31742432 7.06914063 13.38484863 7.70078125 14.48461914 8.3515625 C16.64450054 9.62995557 18.80280215 10.91102172 20.95947266 12.19482422 C24.3957311 14.23494747 27.84704624 16.24782027 31.30395508 18.25268555 C33.36820415 19.45948822 35.41493006 20.69228792 37.4609375 21.9296875 C39.63987439 23.23937383 41.71197725 24.3239588 44.0390625 25.3828125 C46.75749188 26.72098672 48.25262789 27.51739482 50 30 C50.56205151 32.86350453 50.87327255 35.24850498 50.9375 38.125 C50.95433838 38.83092285 50.97117676 39.5368457 50.98852539 40.26416016 C50.90234375 42.3203125 50.90234375 42.3203125 50 46 C47.24205196 48.50294573 45.36047746 49.84337808 41.63330078 50.27246094 C38.35512568 49.93327649 36.43698034 48.83942703 33.61328125 47.1484375 C32.59169922 46.54386719 31.57011719 45.93929687 30.51757812 45.31640625 C28.93106445 44.35541016 28.93106445 44.35541016 27.3125 43.375 C26.27416016 42.75753906 25.23582031 42.14007813 24.16601562 41.50390625 C21.10400989 39.68014108 18.0514445 37.84136737 15 36 C12.37601364 34.42981265 9.75152164 32.86047374 7.12695312 31.29125977 C5.74337524 30.4512984 4.37132952 29.59193599 3.01367188 28.71069336 C-0.39363033 26.53272251 -0.39363033 26.53272251 -4.31640625 26.171875 C-7.65617237 27.20248696 -10.18804364 28.79327139 -13.125 30.6875 C-17.98006188 33.76650343 -22.88506385 36.65049409 -27.96484375 39.34375 C-30.36649718 40.65430477 -32.71656623 42.00731589 -35.06640625 43.40625 C-35.77821045 43.82398682 -36.49001465 44.24172363 -37.22338867 44.67211914 C-38.632718 45.50095766 -40.0355701 46.34093332 -41.4309082 47.19311523 C-44.25793139 48.8407797 -46.34626317 50.01437838 -49.6640625 49.94140625 C-50.43492188 49.63074219 -51.20578125 49.32007813 -52 49 C-52.91007812 48.64550781 -53.82015625 48.29101562 -54.7578125 47.92578125 C-57 46 -57 46 -57.8046875 42.41796875 C-58.2948399 31.78040486 -58.2948399 31.78040486 -55.46875 27.89453125 C-53.06631146 26.29439961 -50.64036971 25.16792473 -48 24 C-46.3521845 23.06124451 -44.70486823 22.12134871 -43.07104492 21.15844727 C-41.28228104 20.10724117 -39.48026831 19.08343181 -37.671875 18.06640625 C-34.13047363 16.07366532 -30.59435174 14.07213962 -27.0625 12.0625 C-25.92039062 11.41539063 -24.77828125 10.76828125 -23.6015625 10.1015625 C-21.01452784 8.61405336 -18.48190556 7.05775116 -15.9609375 5.4609375 C-15.28925537 5.04062256 -14.61757324 4.62030762 -13.92553711 4.18725586 C-12.62935682 3.37242755 -11.34061501 2.54560738 -10.06079102 1.70532227 C-6.17330637 -0.7261517 -4.35925969 -1.29106002 0 0 Z " fill="#DECF87" transform="translate(76,50)"/>
<path d="M0 0 C2.41259766 1.09814453 2.41259766 1.09814453 4.9140625 2.6328125 C5.84089844 3.19226563 6.76773438 3.75171875 7.72265625 4.328125 C8.68042969 4.92109375 9.63820312 5.5140625 10.625 6.125 C12.51186434 7.27533661 14.39988567 8.4237776 16.2890625 9.5703125 C17.22008789 10.1365332 18.15111328 10.70275391 19.11035156 11.28613281 C23.66849351 13.98959314 28.32524021 16.50505032 33 19 C33 19.66 33 20.32 33 21 C29.62150298 23.07145465 26.21996325 25.10160839 22.8125 27.125 C21.85279297 27.71410156 20.89308594 28.30320312 19.90429688 28.91015625 C18.97294922 29.45800781 18.04160156 30.00585938 17.08203125 30.5703125 C16.22843018 31.08352051 15.3748291 31.59672852 14.49536133 32.12548828 C12 33 12 33 9.32324219 32.24780273 C7 31 7 31 4.74609375 29.46484375 C2.10188937 27.71546319 0.12302111 26.63065157 -3 26 C-6.44917405 27.44908696 -9.15495981 29.24096299 -12.140625 31.48828125 C-15 33 -15 33 -17.8359375 32.55078125 C-21.86370976 30.57667559 -25.60925385 28.30605131 -29.375 25.875 C-30.11105469 25.40707031 -30.84710938 24.93914062 -31.60546875 24.45703125 C-33.40730078 23.31041087 -35.20416431 22.15598924 -37 21 C-35.80249853 17.40749559 -35.15120114 17.24717643 -31.9140625 15.546875 C-30.64864624 14.86975464 -30.64864624 14.86975464 -29.35766602 14.17895508 C-28.00499634 13.47162231 -28.00499634 13.47162231 -26.625 12.75 C-19.90142002 9.16651101 -13.42779653 5.53158009 -7.19140625 1.14453125 C-4.49733119 -0.26253469 -3.01903136 -0.26692908 0 0 Z " fill="#DDCB87" transform="translate(75,86)"/>
<path d="M0 0 C2.50097656 1.23999023 2.50097656 1.23999023 5.140625 2.80859375 C6.12087646 3.38609375 7.10112793 3.96359375 8.11108398 4.55859375 C9.66484741 5.48865234 9.66484741 5.48865234 11.25 6.4375 C12.31742432 7.06914063 13.38484863 7.70078125 14.48461914 8.3515625 C16.64450054 9.62995557 18.80280215 10.91102172 20.95947266 12.19482422 C24.39579863 14.23498756 27.84730316 16.24771105 31.30395508 18.25317383 C33.36709544 19.45885615 35.41464624 20.6878754 37.4609375 21.921875 C39.63419974 23.22699142 41.74262935 24.35508755 44.0390625 25.453125 C46.64812187 26.79400381 48.26119869 27.63329821 50 30 C50.72704746 34.75788409 50.52936978 39.22913652 50 44 C37.51671868 37.94560856 37.51671868 37.94560856 32.01171875 33.98046875 C29.86881948 32.80183244 29.86881948 32.80183244 26.6796875 32.5859375 C22.53262033 31.92557649 20.0209391 30.59940954 16.4375 28.4375 C15.20848081 27.70808479 13.97930978 26.97892537 12.75 26.25 C12.12867187 25.87617187 11.50734375 25.50234375 10.8671875 25.1171875 C7.91377374 23.35008219 4.92679462 21.64297654 1.9375 19.9375 C0.79925781 19.28652344 -0.33898437 18.63554688 -1.51171875 17.96484375 C-6.95527426 14.88000813 -12.47544129 11.9366425 -18 9 C-16.6621001 4.98630031 -14.85163712 4.37584435 -11.25 2.25 C-10.20328125 1.61578125 -9.1565625 0.9815625 -8.078125 0.328125 C-4.54532135 -1.19618114 -3.60360827 -1.03978556 0 0 Z " fill="#F3E3B2" transform="translate(76,50)"/>
<path d="M0 0 C2.1660188 0.60648526 4.33273532 1.21048203 6.5 1.8125 C11.37559622 3.33364061 15.56631984 5.21396458 19.93359375 7.8359375 C22.03861518 9.02175298 24.10360497 9.87128182 26.375 10.6875 C30 12 30 12 33 14 C33 14.66 33 15.32 33 16 C28.01953125 19.3203125 28.01953125 19.3203125 26 20 C23.19932079 19.21063659 21.14799509 18.10080081 18.74609375 16.46484375 C16.10188937 14.71546319 14.12302111 13.63065157 11 13 C7.55082595 14.44908696 4.84504019 16.24096299 1.859375 18.48828125 C-1 20 -1 20 -3.8359375 19.55078125 C-7.86370976 17.57667559 -11.60925385 15.30605131 -15.375 12.875 C-16.11105469 12.40707031 -16.84710938 11.93914062 -17.60546875 11.45703125 C-19.40730078 10.31041087 -21.20416431 9.15598924 -23 8 C-21.50626351 3.51879053 -18.24300309 2.38984972 -14.20507812 0.2253418 C-8.57866232 -2.55655733 -5.62166146 -2.21907689 0 0 Z " fill="#EFE49B" transform="translate(61,99)"/>
<path d="M0 0 C0.33 0.66 0.66 1.32 1 2 C3.32156597 2.40729228 5.6568787 2.74438677 8 3 C8 3.66 8 4.32 8 5 C9.75376953 4.94779297 9.75376953 4.94779297 11.54296875 4.89453125 C13.09113141 4.86638284 14.63930968 4.83908381 16.1875 4.8125 C16.95642578 4.78736328 17.72535156 4.76222656 18.51757812 4.73632812 C23.15260383 4.67664968 26.26770105 4.91094296 30 8 C30 8.66 30 9.32 30 10 C28.36417969 10.89138672 28.36417969 10.89138672 26.6953125 11.80078125 C17.50812704 16.83961097 8.47248481 22.05600894 -0.42333984 27.5949707 C-5.90610804 31 -5.90610804 31 -7 31 C-7 22.09 -7 13.18 -7 4 C-4.69 2.68 -2.38 1.36 0 0 Z " fill="#B28747" transform="translate(26,39)"/>
<path d="M0 0 C0.33 0.66 0.66 1.32 1 2 C3.52733235 2.65555119 3.52733235 2.65555119 6 3 C6 3.99 6 4.98 6 6 C7.17369141 6.07347656 7.17369141 6.07347656 8.37109375 6.1484375 C9.38300781 6.22320312 10.39492188 6.29796875 11.4375 6.375 C12.95150391 6.47941406 12.95150391 6.47941406 14.49609375 6.5859375 C15.32238281 6.72257812 16.14867188 6.85921875 17 7 C17.33 7.66 17.66 8.32 18 9 C19.97888961 9.72693904 21.97954558 10.39816251 24 11 C22.34987805 15.95036585 17.66435355 17.33936838 13.25 19.75 C11.88875 20.52923828 11.88875 20.52923828 10.5 21.32421875 C9.17742188 22.05318359 9.17742188 22.05318359 7.828125 22.796875 C6.6201123 23.46734863 6.6201123 23.46734863 5.38769531 24.15136719 C1.57285779 25.50723378 -1.10667904 24.34572026 -4.765625 22.9296875 C-7 21 -7 21 -7.734375 17.3828125 C-7.77559256 15.96413074 -7.77932298 14.54397744 -7.75 13.125 C-7.74548828 12.39990234 -7.74097656 11.67480469 -7.73632812 10.92773438 C-7.59211226 7.70495127 -7.34470967 5.47269593 -5.421875 2.8359375 C-3.5 1.5 -3.5 1.5 0 0 Z " fill="#AB7C3E" transform="translate(26,75)"/>
<path d="M0 0 C2.85691319 1.08737091 5.34998159 2.52962853 7.98828125 4.078125 C9.22864908 4.8003688 10.46957787 5.5216497 11.7109375 6.2421875 C12.40719238 6.64727539 13.10344727 7.05236328 13.82080078 7.46972656 C19.46145379 10.72336469 25.15005559 13.89395424 30.82739258 17.08300781 C36.27081844 20.15118028 41.65925044 23.28922608 46.99316406 26.54443359 C49.0174002 27.73497426 51.06228728 28.80626209 53.17578125 29.828125 C53.17578125 32.138125 53.17578125 34.448125 53.17578125 36.828125 C47.54048835 35.22363188 42.82959451 33.25529141 38 29.9140625 C36.20445524 28.71275242 36.20445524 28.71275242 34.0078125 28.3671875 C33.40324219 28.18929687 32.79867187 28.01140625 32.17578125 27.828125 C31.68078125 26.343125 31.68078125 26.343125 31.17578125 24.828125 C25.64178646 20.47998623 19.79048605 17.40789092 13.05859375 15.44140625 C10.66873503 14.66296679 8.95237319 13.60471694 7.17578125 11.828125 C7.17578125 11.168125 7.17578125 10.508125 7.17578125 9.828125 C6.47066406 9.70566406 5.76554687 9.58320313 5.0390625 9.45703125 C2.02074942 8.79407299 -0.74311317 7.84636925 -3.63671875 6.765625 C-4.61253906 6.40339844 -5.58835937 6.04117187 -6.59375 5.66796875 C-7.32980469 5.39082031 -8.06585938 5.11367188 -8.82421875 4.828125 C-2.18811485 -0.20616071 -2.18811485 -0.20616071 0 0 Z " fill="#BD994D" transform="translate(72.82421875,13.171875)"/>
<path d="M0 0 C2.50097656 1.23999023 2.50097656 1.23999023 5.140625 2.80859375 C6.12087646 3.38609375 7.10112793 3.96359375 8.11108398 4.55859375 C9.66484741 5.48865234 9.66484741 5.48865234 11.25 6.4375 C12.31742432 7.06914063 13.38484863 7.70078125 14.48461914 8.3515625 C16.64450054 9.62995557 18.80280215 10.91102172 20.95947266 12.19482422 C23.64659777 13.79018338 26.34128962 15.37086669 29.04296875 16.94140625 C36.17339637 21.08908076 43.23895115 25.26148713 50 30 C48 31 48 31 45.84765625 30.35546875 C35.91116854 26.18855455 26.47517521 21.11427198 17 16 C17 15.34 17 14.68 17 14 C16.0409375 13.8453125 16.0409375 13.8453125 15.0625 13.6875 C10.02161723 12.55587326 4.98439742 11.22116764 0.5625 8.5 C-3.35491482 6.20687913 -7.64150034 5.19329797 -12 4 C-5.31381906 -1.45451603 -5.31381906 -1.45451603 0 0 Z " fill="#B68B35" transform="translate(76,50)"/>
<path d="M0 0 C5.92479966 0.34851763 8.02942457 1.70748603 12 6 C14.17346568 6.86119134 14.17346568 6.86119134 16 7 C16 7.66 16 8.32 16 9 C17.2375 9.0928125 17.2375 9.0928125 18.5 9.1875 C22.3540814 10.08219747 24.7139413 11.56165173 27.96484375 13.72265625 C30.8526147 15.53513437 33.83427237 16.74689948 37 18 C37 21.63 37 25.26 37 29 C36.34 28.67 35.68 28.34 35 28 C35 27.34 35 26.68 35 26 C34.36191406 25.81824219 33.72382812 25.63648437 33.06640625 25.44921875 C32.24011719 25.19785156 31.41382812 24.94648437 30.5625 24.6875 C29.73878906 24.44386719 28.91507813 24.20023438 28.06640625 23.94921875 C27.38449219 23.63597656 26.70257813 23.32273437 26 23 C25.67 22.01 25.34 21.02 25 20 C22.66989091 19.32215008 20.33640176 18.65583207 18 18 C17.34 17.01 16.68 16.02 16 15 C15.01 14.566875 15.01 14.566875 14 14.125 C12 13 12 13 11.0625 10.4375 C10.711875 9.633125 10.36125 8.82875 10 8 C7.56740432 7.24680201 7.56740432 7.24680201 5 7 C1.67098753 4.78065836 1.24976756 3.65316671 0 0 Z " fill="#F1E1AE" transform="translate(89,32)"/>
<path d="M0 0 C0.81210937 0.91072266 0.81210937 0.91072266 1.640625 1.83984375 C4.25082133 4.22964271 6.46715119 5.27402437 9.75 6.5625 C10.801875 6.98015625 11.85375 7.3978125 12.9375 7.828125 C13.948125 8.21484375 14.95875 8.6015625 16 9 C17.2684375 9.48726562 17.2684375 9.48726562 18.5625 9.984375 C20.37031294 10.66876133 22.18438067 11.33660063 24 12 C22.03336267 14.06170137 20.09797387 15.78863721 17.6875 17.3125 C17.13449219 17.67988281 16.58148438 18.04726562 16.01171875 18.42578125 C12.81740451 19.33755638 11.02280995 18.30880858 8 17 C5.1378827 15.39731309 2.38032866 13.65375647 -0.375 11.875 C-1.11105469 11.40707031 -1.84710938 10.93914062 -2.60546875 10.45703125 C-4.40730078 9.31041087 -6.20416431 8.15598924 -8 7 C-6.5361389 2.60841671 -4.02168662 2.12052567 0 0 Z " fill="#B58C4C" transform="translate(46,100)"/>
<path d="M0 0 C0.38671875 0.59425781 0.7734375 1.18851563 1.171875 1.80078125 C5.11036288 6.5387485 11.52805447 9.65306028 17.5625 10.5 C21.93162163 11.1355086 24.65170633 12.99114212 28.34375 15.33203125 C30.93229166 16.95748314 33.55739156 18.42970282 36.25 19.875 C41.18452954 22.53796849 46.05482225 25.30034676 50.91748047 28.09130859 C55.58826606 30.77054297 60.28245945 33.40410467 65 36 C64.67 36.99 64.34 37.98 64 39 C63.21496094 38.54109375 62.42992188 38.0821875 61.62109375 37.609375 C59.45256495 36.34284775 57.28190155 35.07996991 55.109375 33.8203125 C53.35724793 32.79456977 51.61159509 31.7568873 49.890625 30.6796875 C47.0638068 28.92913494 45.04129475 28.00475723 41.7109375 27.62109375 C37.56466948 26.92713942 35.02501058 25.60186588 31.4375 23.4375 C30.20848081 22.70808479 28.97930978 21.97892537 27.75 21.25 C27.12867187 20.87617187 26.50734375 20.50234375 25.8671875 20.1171875 C22.91377374 18.35008219 19.92679462 16.64297654 16.9375 14.9375 C15.79925781 14.28652344 14.66101563 13.63554688 13.48828125 12.96484375 C8.04472574 9.88000813 2.52455871 6.9366425 -3 4 C-2.67 3.01 -2.34 2.02 -2 1 C-1.34 0.67 -0.68 0.34 0 0 Z " fill="#E7D79C" transform="translate(61,55)"/>
<path d="M0 0 C0 0.99 0 1.98 0 3 C0.58491211 3.04487549 1.16982422 3.08975098 1.77246094 3.13598633 C4.43293157 3.34784253 7.09126146 3.57995193 9.75 3.8125 C11.13058594 3.91788086 11.13058594 3.91788086 12.5390625 4.02539062 C13.42851563 4.10595703 14.31796875 4.18652344 15.234375 4.26953125 C16.45979004 4.37164917 16.45979004 4.37164917 17.70996094 4.47583008 C20.4182956 5.09574421 21.86322784 6.26380185 24 8 C26.14733927 8.70514846 26.14733927 8.70514846 28 9 C28 9.66 28 10.32 28 11 C25.51295867 12.93436548 23.96459084 14.10455191 21 15 C17.15695008 14.46939123 13.63286481 13.34015266 10 12 C10 11.67 10 11.34 10 11 C3.07 10.505 3.07 10.505 -4 10 C-4 9.67 -4 9.34 -4 9 C-5.65 8.67 -7.3 8.34 -9 8 C-7.625 6.5 -7.625 6.5 -6 5 C-5.34 5 -4.68 5 -4 5 C-3.67 4.01 -3.34 3.02 -3 2 C-2.01 1.34 -1.02 0.68 0 0 Z " fill="#CFB06D" transform="translate(31,72)"/>
<path d="M0 0 C4.28501245 1.56114306 8.13964134 3.70369249 12.0625 6 C17.45159623 9.14704475 17.45159623 9.14704475 23 12 C23 14.31 23 16.62 23 19 C17.3647071 17.39550688 12.65381326 15.42716641 7.82421875 12.0859375 C6.02867399 10.88462742 6.02867399 10.88462742 3.83203125 10.5390625 C3.22746094 10.36117187 2.62289062 10.18328125 2 10 C1.67 9.01 1.34 8.02 1 7 C-0.49985609 5.33289654 -0.49985609 5.33289654 -2 4 C-1.01 4 -0.02 4 1 4 C0.67 2.68 0.34 1.36 0 0 Z " fill="#BC933F" transform="translate(103,31)"/>
<path d="M0 0 C2.475 0.99 2.475 0.99 5 2 C4.01 2.33 3.02 2.66 2 3 C2 3.66 2 4.32 2 5 C8.93 5 15.86 5 23 5 C20.0141612 7.9858388 18.07092315 9.79986904 14.5625 11.8125 C13.82128906 12.25207031 13.08007812 12.69164063 12.31640625 13.14453125 C8.58737154 14.52169584 5.83662554 13.27887518 2.1875 12.0625 C0 10 0 10 -0.3125 7.578125 C-0.3125 5.03369115 -0.21401169 2.53484953 0 0 Z " fill="#C39F5D" transform="translate(19,86)"/>
<path d="M0 0 C3.02276723 1.54867894 5.91314544 3.29566784 8.8125 5.0625 C9.60076172 5.53494141 10.38902344 6.00738281 11.20117188 6.49414062 C13.13812608 7.65631315 15.07078295 8.82504417 17 10 C14 11 14 11 11.5625 10.5 C9.08185633 9.7864587 9.08185633 9.7864587 7.125 10.6875 C4.11838015 11.12964998 2.56025571 9.67996437 0.08203125 8.125 C-3.70089502 6.08094228 -7.86218269 5.09897763 -12 4 C-5.18681734 -1.5581227 -5.18681734 -1.5581227 0 0 Z " fill="#C09641" transform="translate(76,50)"/>
<path d="M0 0 C3.18217461 0.30512423 4.89102828 1.2242853 7.60791016 2.89111328 C8.53474609 3.45056641 9.46158203 4.01001953 10.41650391 4.58642578 C11.37427734 5.17939453 12.33205078 5.77236328 13.31884766 6.38330078 C15.205712 7.53363739 17.09373333 8.68207838 18.98291016 9.82861328 C19.91393555 10.39483398 20.84496094 10.96105469 21.80419922 11.54443359 C26.36234117 14.24789392 31.01908786 16.7633511 35.69384766 19.25830078 C35.36384766 19.91830078 35.03384766 20.57830078 34.69384766 21.25830078 C30.40384766 19.60830078 26.11384766 17.95830078 21.69384766 16.25830078 C21.69384766 15.59830078 21.69384766 14.93830078 21.69384766 14.25830078 C20.96294922 13.97728516 20.23205078 13.69626953 19.47900391 13.40673828 C16.93222544 12.35659401 14.56189274 11.17465638 12.13134766 9.88330078 C6.5190358 7.03058721 0.70023972 5.10562755 -5.30615234 3.25830078 C-3.59693013 1.09928324 -2.78657888 0.31211099 0 0 Z " fill="#BA903B" transform="translate(72.30615234375,85.74169921875)"/>
<path d="M0 0 C4.15989972 0.61174996 7.25956343 2.12978171 11 4 C13.32548007 4.69356423 15.65880445 5.36149212 18 6 C19.67632417 6.64199649 21.34750513 7.29894157 23 8 C23 8.66 23 9.32 23 10 C24.19496094 10.34224609 24.19496094 10.34224609 25.4140625 10.69140625 C30.8438805 12.67287578 35.76982823 15.51706111 40.8359375 18.27929688 C45.79727415 20.94681041 50.67833209 23.14659152 56 25 C50.70964334 26.76345222 45.73980776 23.84097629 40.93115234 21.51660156 C37.49965293 19.74973793 34.0902435 17.94661338 30.6875 16.125 C23.12242332 12.08518952 15.62457816 8.26526135 7.63208008 5.13623047 C4.91436425 3.9630323 2.47107128 2.62800647 0 1 C0 0.67 0 0.34 0 0 Z " fill="#DEC281" transform="translate(70,56)"/>
<path d="M0 0 C6.93 2.97 6.93 2.97 14 6 C14 6.66 14 7.32 14 8 C9.38 10.64 4.76 13.28 0 16 C0 10.72 0 5.44 0 0 Z " fill="#C4A160" transform="translate(19,54)"/>
<path d="M0 0 C0.33 0.66 0.66 1.32 1 2 C3.2931383 2.84228734 5.61494957 3.46932939 7.96875 4.12109375 C8.6390625 4.41113281 9.309375 4.70117188 10 5 C10.33 5.99 10.66 6.98 11 8 C13.21433941 9.08742694 13.21433941 9.08742694 16 10 C17.27448625 10.53301495 18.54528155 11.07492952 19.8125 11.625 C21.3903125 12.305625 21.3903125 12.305625 23 13 C21.375 14.625 21.375 14.625 19 16 C13.56794972 14.77132196 9.23927645 11.8538367 4.625 8.875 C3.88894531 8.40707031 3.15289062 7.93914062 2.39453125 7.45703125 C0.59269922 6.31041087 -1.20416431 5.15598924 -3 4 C-2.67 3.01 -2.34 2.02 -2 1 C-1.34 0.67 -0.68 0.34 0 0 Z " fill="#A37438" transform="translate(41,103)"/>
<path d="M0 0 C0.33 0.66 0.66 1.32 1 2 C3.32156597 2.40729228 5.6568787 2.74438677 8 3 C8 3.66 8 4.32 8 5 C9.20398438 4.97679687 10.40796875 4.95359375 11.6484375 4.9296875 C13.22395215 4.91093137 14.79947348 4.89273101 16.375 4.875 C17.1690625 4.85824219 17.963125 4.84148438 18.78125 4.82421875 C20.85492015 4.80664527 22.92883241 4.89664832 25 5 C25.66 5.66 26.32 6.32 27 7 C15.78 7 4.56 7 -7 7 C-7 6.01 -7 5.02 -7 4 C-4.69 2.68 -2.38 1.36 0 0 Z " fill="#CCAB68" transform="translate(26,39)"/>
<path d="M0 0 C6.31631828 0.40316925 10.64993984 2.71232131 16 6 C16 7.32 16 8.64 16 10 C11.99731119 11.3342296 10.32791785 10.26269878 6.4375 8.75 C5.28121094 8.31171875 4.12492187 7.8734375 2.93359375 7.421875 C0 6 0 6 -2 3 C-1.34 2.01 -0.68 1.02 0 0 Z " fill="#E6D69A" transform="translate(65,89)"/>
<path d="M0 0 C-0.33 0.66 -0.66 1.32 -1 2 C-5.83722427 3.57209789 -9.38093809 2.56592615 -14.046875 1.08203125 C-16.4459775 -0.24707154 -17.0211735 -1.48524893 -18 -4 C-11.98265602 -6.00578133 -5.51921581 -2.52964058 0 0 Z " fill="#EEDCA8" transform="translate(107,106)"/>
<path d="M0 0 C0.66 0.33 1.32 0.66 2 1 C1.67 1.66 1.34 2.32 1 3 C2.051875 3.1546875 2.051875 3.1546875 3.125 3.3125 C6.39137647 4.09359003 9.0471852 5.42058743 12 7 C12 7.33 12 7.66 12 8 C5.4 7.67 -1.2 7.34 -8 7 C-3.27272727 1.09090909 -3.27272727 1.09090909 0 0 Z " fill="#E8D791" transform="translate(37,69)"/>
<path d="M0 0 C0 0.99 0 1.98 0 3 C6.6 3.66 13.2 4.32 20 5 C20 5.33 20 5.66 20 6 C11.65662197 7.98352006 2.39966167 7.59993556 -6 6 C-5.34 5.67 -4.68 5.34 -4 5 C-3.67 4.01 -3.34 3.02 -3 2 C-2.01 1.34 -1.02 0.68 0 0 Z " fill="#D3B774" transform="translate(31,72)"/>
<path d="M0 0 C5.32498673 0.50155186 9.35205395 3.34435727 13.8125 6.0625 C14.60076172 6.53494141 15.38902344 7.00738281 16.20117188 7.49414062 C18.13812608 8.65631315 20.07078295 9.82504417 22 11 C18.5385523 12.1538159 18.20225993 11.91562437 15.09375 10.3828125 C14.34996094 10.02316406 13.60617188 9.66351563 12.83984375 9.29296875 C12.06769531 8.90753906 11.29554687 8.52210937 10.5 8.125 C8.96938608 7.37630237 7.43815972 6.62885519 5.90625 5.8828125 C5.22884766 5.54652832 4.55144531 5.21024414 3.85351562 4.86376953 C1.84560781 3.88515045 1.84560781 3.88515045 -1 3 C-0.67 2.01 -0.34 1.02 0 0 Z " fill="#B89549" transform="translate(71,49)"/>
<path d="M0 0 C7.67836478 1.35500555 14.51255991 4.72267166 21 9 C21.33 9.99 21.66 10.98 22 12 C15.51587896 10.59040847 10.57035662 7.51953401 5 4 C4.07445313 3.46246094 3.14890625 2.92492187 2.1953125 2.37109375 C1.10863281 1.69240234 1.10863281 1.69240234 0 1 C0 0.67 0 0.34 0 0 Z " fill="#BC8E32" transform="translate(83,24)"/>
<path d="M0 0 C0.81210937 0.91072266 0.81210937 0.91072266 1.640625 1.83984375 C4.25082133 4.22964271 6.46715119 5.27402437 9.75 6.5625 C10.801875 6.98015625 11.85375 7.3978125 12.9375 7.828125 C13.948125 8.21484375 14.95875 8.6015625 16 9 C17.2684375 9.48726562 17.2684375 9.48726562 18.5625 9.984375 C20.37031294 10.66876133 22.18438067 11.33660063 24 12 C24 12.33 24 12.66 24 13 C18.54462997 13.33400225 14.79088858 12.42206034 10 10 C8.97390625 9.49339844 7.9478125 8.98679687 6.890625 8.46484375 C3.92006368 6.99002281 0.95758059 5.50064434 -2 4 C-1.34 2.68 -0.68 1.36 0 0 Z " fill="#CAAA68" transform="translate(46,100)"/>
<path d="M0 0 C0.33 0.99 0.66 1.98 1 3 C2.76203437 3.84931097 2.76203437 3.84931097 4.9375 4.375 C10.29151745 5.99146853 15.05840032 8.41398151 20 11 C21.33196909 11.66938821 22.66483853 12.3370022 24 13 C18.56381214 13.71528788 15.18133807 11.79499827 10.54296875 9.296875 C8.19539927 8.09965062 5.93914588 7.24593134 3.4375 6.4375 C2.303125 5.963125 1.16875 5.48875 0 5 C-0.77734375 2.97265625 -0.77734375 2.97265625 -1 1 C-0.67 0.67 -0.34 0.34 0 0 Z " fill="#E1CC87" transform="translate(48,99)"/>
<path d="M0 0 C0.33 0.66 0.66 1.32 1 2 C2.64991582 2.70710678 4.3207762 3.36562656 6 4 C8.00751815 4.98482022 10.00934459 5.98152514 12 7 C9 9 9 9 6.6953125 8.609375 C5.42300781 8.18398438 5.42300781 8.18398438 4.125 7.75 C3.24328125 7.45996094 2.3615625 7.16992188 1.453125 6.87109375 C-1.06107172 5.9783137 -3.55141008 5.06105563 -6 4 C-4.03617993 2.49440461 -2.21736634 1.10868317 0 0 Z " fill="#BD923B" transform="translate(70,14)"/>
<path d="M0 0 C3.3 0.99 6.6 1.98 10 3 C7.0094833 6.33557632 4.06815373 8.15083921 0 10 C0 6.7 0 3.4 0 0 Z " fill="#D6BD79" transform="translate(19,60)"/>
<path d="M0 0 C5.85272256 0.45020943 10.08220119 3.03839227 15 6 C15 6.66 15 7.32 15 8 C11.22684928 8.35099077 9.51457512 8.36755366 6.375 6.125 C5.59125 5.42375 4.8075 4.7225 4 4 C2.68861096 3.29114106 1.36222983 2.60543548 0 2 C0 1.34 0 0.68 0 0 Z " fill="#F4E4B4" transform="translate(66,89)"/>
<path d="M0 0 C0.33 0.66 0.66 1.32 1 2 C3.52733235 2.65555119 3.52733235 2.65555119 6 3 C6 3.99 6 4.98 6 6 C1.49646738 7.75747614 -2.17639811 8.19294408 -7 8 C-6.875 6.25 -6.875 6.25 -6 4 C-2.9375 1.75 -2.9375 1.75 0 0 Z " fill="#A47437" transform="translate(26,75)"/>
<path d="M0 0 C4.36721818 -0.32409782 7.33186542 0.75027051 11.3125 2.5 C12.38113281 2.9640625 13.44976562 3.428125 14.55078125 3.90625 C15.35902344 4.2671875 16.16726562 4.628125 17 5 C17 5.66 17 6.32 17 7 C17.99 7.33 18.98 7.66 20 8 C17.70456573 8.78821819 16.41991018 9.13558044 14.07714844 8.37915039 C13.4277832 8.03875732 12.77841797 7.69836426 12.109375 7.34765625 C11.40039062 6.98349609 10.69140625 6.61933594 9.9609375 6.24414062 C9.23132813 5.85419922 8.50171875 5.46425781 7.75 5.0625 C7.00492187 4.67642578 6.25984375 4.29035156 5.4921875 3.89257812 C3.65585606 2.93909834 1.82715793 1.97094323 0 1 C0 0.67 0 0.34 0 0 Z " fill="#E0C586" transform="translate(63,18)"/>
<path d="M0 0 C4.01429097 0.57347014 6.57611645 1.88045304 10 4 C11.24316568 4.53694177 12.49357394 5.05736544 13.75 5.5625 C17 7 17 7 18 9 C17.01 8.67 16.02 8.34 15 8 C14.34 8.66 13.68 9.32 13 10 C12.67 9.01 12.34 8.02 12 7 C10.00480364 6.01059939 10.00480364 6.01059939 7.625 5.375 C6.83351563 5.13523437 6.04203125 4.89546875 5.2265625 4.6484375 C4.49179688 4.43445313 3.75703125 4.22046875 3 4 C2.01 3.67 1.02 3.34 0 3 C0 2.01 0 1.02 0 0 Z " fill="#F7E7B9" transform="translate(62,19)"/>
<path d="M0 0 C2.64 0.33 5.28 0.66 8 1 C8 1.66 8 2.32 8 3 C13.61 3 19.22 3 25 3 C25 3.33 25 3.66 25 4 C16.42 4 7.84 4 -1 4 C-0.67 2.68 -0.34 1.36 0 0 Z " fill="#D0B26F" transform="translate(26,41)"/>
<path d="M0 0 C3.68746328 0.5028359 6.82109196 0.99846531 10 3 C10.33 3.66 10.66 4.32 11 5 C13.2931383 5.84228734 15.61494957 6.46932939 17.96875 7.12109375 C18.6390625 7.41113281 19.309375 7.70117188 20 8 C20.33 8.99 20.66 9.98 21 11 C15.3647071 9.39550688 10.65381326 7.42716641 5.82421875 4.0859375 C3.8907619 2.93497175 2.19670763 2.43643198 0 2 C0 1.34 0 0.68 0 0 Z " fill="#D8B873" transform="translate(105,39)"/>
<path d="M0 0 C0.33 0.99 0.66 1.98 1 3 C3.31 3.33 5.62 3.66 8 4 C8 4.66 8 5.32 8 6 C6.41773035 6.19627391 4.83410729 6.38165538 3.25 6.5625 C2.36828125 6.66691406 1.4865625 6.77132812 0.578125 6.87890625 C-1.88432451 6.99456676 -3.66538064 6.73638695 -6 6 C-4.75453595 2.26360784 -3.36595047 1.81243487 0 0 Z " fill="#DDC884" transform="translate(33,35)"/>
<path d="M0 0 C0.33 0.66 0.66 1.32 1 2 C2.093125 2.309375 3.18625 2.61875 4.3125 2.9375 C7.65842692 3.90158064 9.43673118 4.74432344 12 7 C11.67 7.99 11.34 8.98 11 10 C7.37 8.02 3.74 6.04 0 4 C0 2.68 0 1.36 0 0 Z " fill="#97652C" transform="translate(39,104)"/>
<path d="M0 0 C1.03125 0.639375 2.0625 1.27875 3.125 1.9375 C6.38609658 3.81711371 9.22046944 4.63126531 13 5 C11.8125 6.5625 11.8125 6.5625 10 8 C6.08220107 7.79380006 3.08923322 6.38312277 0 4 C0 2.68 0 1.36 0 0 Z " fill="#D5BF7D" transform="translate(19,92)"/>
<path d="M0 0 C6.68828485 0.70402998 13.48498214 2.84427041 18.625 7.25 C19.07875 7.8275 19.5325 8.405 20 9 C12.84870304 7.12849037 6.50594543 4.50213658 0 1 C0 0.67 0 0.34 0 0 Z " fill="#C39B49" transform="translate(106,72)"/>
<path d="M0 0 C5.28 0 10.56 0 16 0 C15 2 15 2 12.5 3.3125 C7.70772149 4.25384042 4.42318027 2.82824784 0 1 C0 0.67 0 0.34 0 0 Z " fill="#CCAE6C" transform="translate(41,83)"/>
<path d="M0 0 C6.26418531 1.48362284 10.91513505 5.24162156 16 9 C14.14453125 9.640625 14.14453125 9.640625 12 10 C10.31066078 8.3563186 8.64740076 6.6857124 7 5 C4.70896111 3.77333959 2.44439075 2.91065538 0 2 C0 1.34 0 0.68 0 0 Z " fill="#D6B56E" transform="translate(89,29)"/>
<path d="M0 0 C6.14673271 1.46987086 11.42234327 4.05966587 17 7 C16.67 7.66 16.34 8.32 16 9 C11.71 7.35 7.42 5.7 3 4 C3 3.34 3 2.68 3 2 C2.01 1.67 1.02 1.34 0 1 C0 0.67 0 0.34 0 0 Z " fill="#C09B4F" transform="translate(91,98)"/>
<path d="M0 0 C2.3431213 0.25561323 4.67843403 0.59270772 7 1 C7.33 1.66 7.66 2.32 8 3 C7.01 3 6.02 3 5 3 C6.65 3.99 8.3 4.98 10 6 C8.3125 6.75 8.3125 6.75 6 7 C2.7230706 4.86618551 1.24993996 3.74981988 0 0 Z " fill="#C49A44" transform="translate(79,22)"/>
<path d="M0 0 C1.05767578 0.42925781 1.05767578 0.42925781 2.13671875 0.8671875 C5.01205232 2.00476831 7.90452186 3.07392356 10.8125 4.125 C11.78832031 4.47820312 12.76414062 4.83140625 13.76953125 5.1953125 C14.87361328 5.59363281 14.87361328 5.59363281 16 6 C16 6.33 16 6.66 16 7 C9.40770855 7.7013076 5.50623443 5.49602186 0 2 C0 1.34 0 0.68 0 0 Z " fill="#D1B471" transform="translate(54,106)"/>
<path d="M0 0 C0.33 0.66 0.66 1.32 1 2 C1.99 2.66 2.98 3.32 4 4 C2.35 4 0.7 4 -1 4 C-1 4.66 -1 5.32 -1 6 C-2.98 6 -4.96 6 -7 6 C-7 5.34 -7 4.68 -7 4 C-4.69 2.68 -2.38 1.36 0 0 Z " fill="#AE8649" transform="translate(26,39)"/>
<path d="M0 0 C0.33 0.99 0.66 1.98 1 3 C-5.52307692 3.36923077 -5.52307692 3.36923077 -7.9375 1.5 C-8.4634375 0.7575 -8.4634375 0.7575 -9 0 C-5.52176885 -1.15941038 -3.54104422 -0.70820884 0 0 Z " fill="#F3E3B2" transform="translate(98,102)"/>
<path d="M0 0 C3.7602985 0.58107632 6.53035032 1.65199496 9.8125 3.5625 C10.60269531 4.01753906 11.39289063 4.47257812 12.20703125 4.94140625 C12.79871094 5.29074219 13.39039062 5.64007813 14 6 C13.01 6.495 13.01 6.495 12 7 C9.1796875 5.78515625 9.1796875 5.78515625 5.875 4.0625 C4.77929688 3.49660156 3.68359375 2.93070313 2.5546875 2.34765625 C1.71164063 1.90292969 0.86859375 1.45820312 0 1 C0 0.67 0 0.34 0 0 Z " fill="#E1C688" transform="translate(70,56)"/>
<path d="M0 0 C1.44010481 0.25662245 2.8770687 0.53090821 4.3125 0.8125 C5.11300781 0.96332031 5.91351563 1.11414063 6.73828125 1.26953125 C9.23445587 2.07572236 10.32422106 3.02052002 12 5 C10 6 10 6 7.3984375 5.22265625 C5.90183594 4.64837891 5.90183594 4.64837891 4.375 4.0625 C3.37210937 3.68222656 2.36921875 3.30195312 1.3359375 2.91015625 C0.56507812 2.60980469 -0.20578125 2.30945313 -1 2 C-0.67 1.34 -0.34 0.68 0 0 Z " fill="#E0D08F" transform="translate(74,98)"/>
<path d="M0 0 C8.35010941 0.35010941 8.35010941 0.35010941 11.0625 3.0625 C11.371875 3.701875 11.68125 4.34125 12 5 C10.55989519 4.74337755 9.1229313 4.46909179 7.6875 4.1875 C6.88699219 4.03667969 6.08648437 3.88585937 5.26171875 3.73046875 C2.76554413 2.92427764 1.67577894 1.97947998 0 0 Z " fill="#E4D68B" transform="translate(54,96)"/>
<path d="M0 0 C3.96 1.98 7.92 3.96 12 6 C9 7 9 7 5.4375 5.8125 C2 4 2 4 0 0 Z " fill="#AA8233" transform="translate(84,92)"/>
<path d="M0 0 C0.33 0.66 0.66 1.32 1 2 C0.34 2 -0.32 2 -1 2 C-1 2.99 -1 3.98 -1 5 C-3.31 4.34 -5.62 3.68 -8 3 C-5.53387212 -0.1151089 -3.89156016 -0.31553191 0 0 Z " fill="#BE994B" transform="translate(75,86)"/>
<path d="M0 0 C3.72433382 1.2125738 7.37802806 2.50859979 11 4 C10.01 4.66 9.02 5.32 8 6 C5.36 4.68 2.72 3.36 0 2 C0 1.34 0 0.68 0 0 Z " fill="#98642A" transform="translate(53,112)"/>
<path d="M0 0 C2.71224618 1.61268692 5.37352812 3.24901874 8 5 C5.45297384 6.27351308 4.5717055 5.80191925 1.875 5.0625 C1.15054688 4.86785156 0.42609375 4.67320313 -0.3203125 4.47265625 C-0.87460938 4.31667969 -1.42890625 4.16070312 -2 4 C-1.34 2.68 -0.68 1.36 0 0 Z " fill="#E9DAA5" transform="translate(65,89)"/>
<path d="M0 0 C2.97 0 5.94 0 9 0 C7.515 1.485 7.515 1.485 6 3 C3.375 2.8125 3.375 2.8125 1 2 C0.67 1.34 0.34 0.68 0 0 Z " fill="#DCC582" transform="translate(23,97)"/>
<path d="M0 0 C2.475 0.495 2.475 0.495 5 1 C4 4 4 4 1.9375 5.1875 C1.298125 5.455625 0.65875 5.72375 0 6 C0 4.02 0 2.04 0 0 Z " fill="#E3D28F" transform="translate(19,64)"/>
<path d="M0 0 C3.55780196 0.60990891 6.6828589 1.5783681 10 3 C10 3.33 10 3.66 10 4 C7.25 4.25 7.25 4.25 4 4 C1.625 2 1.625 2 0 0 Z " fill="#CFAB5E" transform="translate(83,61)"/>
<path d="M0 0 C0.598125 0.185625 1.19625 0.37125 1.8125 0.5625 C4.16408762 1.22093687 4.16408762 1.22093687 7 0 C7 1.65 7 3.3 7 5 C1.125 2.25 1.125 2.25 0 0 Z " fill="#B88B33" transform="translate(119,43)"/>
<path d="M0 0 C2.475 0.495 2.475 0.495 5 1 C5 1.66 5 2.32 5 3 C5.99 3.33 6.98 3.66 8 4 C6.25 4.75 6.25 4.75 4 5 C1.75 3.125 1.75 3.125 0 1 C0 0.67 0 0.34 0 0 Z " fill="#D7B771" transform="translate(75,22)"/>
</svg>
